<?xml version="1.0" standalone="no"?>
<!DOCTYPE svg PUBLIC "-//W3C//DTD SVG 20010904//EN"
 "http://www.w3.org/TR/2001/REC-SVG-20010904/DTD/svg10.dtd">
<svg version="1.0" xmlns="http://www.w3.org/2000/svg"
 width="1600.000000pt" height="1200.000000pt" viewBox="0 0 1600.000000 1200.000000"
 preserveAspectRatio="xMidYMid meet">

<g transform="translate(0.000000,1200.000000) scale(0.100000,-0.100000)"
fill="#000000" stroke="none">
<path d="M7378 7842 c-71 -111 -98 -256 -80 -419 11 -92 10 -98 -15 -172 -24
-66 -27 -92 -27 -196 0 -103 4 -130 27 -193 14 -41 49 -109 77 -152 67 -102
90 -164 90 -243 0 -117 -36 -203 -185 -437 -271 -427 -403 -704 -451 -940 -22
-111 -15 -310 15 -424 12 -44 17 -84 13 -88 -5 -5 -46 -16 -93 -24 -265 -51
-519 60 -684 298 -43 62 -83 86 -154 95 -136 16 -257 -88 -268 -230 -5 -56 -2
-68 30 -129 103 -197 278 -346 490 -416 204 -68 166 -66 1257 -63 542 1 1026
6 1077 11 115 11 145 27 181 100 l27 55 10 430 c16 690 13 966 -13 1110 -30
169 -74 314 -154 510 -117 286 -114 262 -42 347 52 60 105 167 125 248 22 91
16 232 -13 320 -24 70 -25 84 -21 221 7 177 -9 265 -63 355 -19 33 -41 64 -47
71 -14 13 -114 -64 -276 -215 l-105 -97 -158 0 -159 -1 -87 84 c-70 67 -276
242 -285 242 -1 0 -18 -26 -39 -58z m185 -246 c57 -52 115 -109 129 -128 l25
-33 226 1 225 0 133 127 c73 70 137 126 143 124 6 -2 14 -17 17 -33 11 -47 10
-227 -1 -283 -9 -46 -6 -61 19 -134 15 -45 31 -105 35 -134 15 -117 -34 -266
-118 -359 -98 -110 -100 -170 -14 -359 112 -244 185 -495 209 -720 11 -108 11
-169 -10 -967 l-6 -236 -57 35 c-56 35 -58 37 -53 72 31 216 71 810 62 904 -5
55 -29 87 -65 87 -51 0 -62 -24 -62 -129 0 -144 -18 -407 -45 -681 -14 -135
-26 -260 -27 -279 -3 -32 -2 -34 62 -57 80 -29 143 -89 138 -132 -3 -24 -8
-28 -48 -34 -25 -3 -73 -7 -106 -7 l-61 -1 -7 42 c-14 89 -87 178 -165 203
-21 6 -23 11 -17 54 11 81 19 849 11 1044 -8 206 -15 230 -69 230 -61 0 -59
24 -61 -610 -1 -318 -5 -630 -10 -694 l-8 -115 65 -18 c74 -20 114 -53 124
-104 l7 -32 -186 0 -186 0 -5 33 c-3 17 -23 275 -46 571 -44 592 -41 576 -106
576 -68 0 -68 8 -28 -495 19 -248 33 -462 32 -477 l-3 -27 -53 34 c-30 18 -76
39 -103 46 -32 8 -48 17 -45 25 38 99 40 238 4 340 -44 126 -148 254 -207 254
-34 0 -61 -27 -61 -63 0 -22 14 -45 59 -93 75 -80 103 -149 104 -254 1 -94
-19 -156 -82 -253 l-48 -74 101 5 c131 5 193 -16 268 -91 l52 -52 -209 -3
c-238 -3 -214 -11 -305 103 -136 171 -200 356 -200 579 0 251 111 506 454
1049 163 257 212 386 204 537 -6 99 -24 147 -90 235 -121 161 -148 317 -83
480 28 68 28 69 17 189 -7 79 -8 146 -2 191 5 39 9 73 10 78 1 19 28 0 123
-87z m-1632 -2788 c9 -7 32 -36 52 -64 53 -74 164 -176 244 -223 179 -106 410
-138 605 -83 75 21 69 24 113 -53 16 -27 44 -70 63 -95 l34 -45 -29 -6 c-59
-14 -461 -9 -578 6 -253 33 -431 122 -565 282 -93 111 -116 173 -85 233 26 51
109 78 146 48z"/>
<path d="M7659 7201 c-16 -16 -29 -39 -29 -51 0 -30 53 -80 85 -80 51 0 89 63
69 115 -7 18 -55 45 -79 45 -9 0 -30 -13 -46 -29z"/>
<path d="M8135 7205 c-16 -15 -25 -36 -25 -55 0 -38 39 -80 73 -80 42 0 77 36
77 80 0 71 -76 104 -125 55z"/>
<path d="M7876 7018 c-22 -31 -20 -43 14 -82 26 -29 29 -38 20 -60 -10 -28
-29 -33 -62 -15 -16 8 -24 8 -35 -4 -45 -45 58 -103 112 -63 17 12 23 12 47 0
38 -20 71 -17 102 7 30 23 33 41 10 60 -12 10 -20 10 -35 1 -29 -18 -48 -14
-61 12 -9 21 -7 29 16 56 52 63 27 110 -59 110 -44 0 -57 -4 -69 -22z"/>
</g>
</svg>
